<?xml version="1.0" standalone="no"?>
<!DOCTYPE svg PUBLIC "-//W3C//DTD SVG 20010904//EN"
 "http://www.w3.org/TR/2001/REC-SVG-20010904/DTD/svg10.dtd">
<svg version="1.0" xmlns="http://www.w3.org/2000/svg"
 width="512.000000pt" height="512.000000pt" viewBox="0 0 512.000000 512.000000"
 preserveAspectRatio="xMidYMid meet">

<g transform="translate(0.000000,512.000000) scale(0.100000,-0.100000)"
fill="#4F7CAC" stroke="none">
<path d="M2517 4920 c-103 -26 -208 -114 -253 -213 -26 -56 -29 -72 -29 -162
1 -80 5 -109 22 -146 l21 -46 -772 -696 -771 -697 -308 0 c-366 0 -377 -3
-377 -90 0 -44 40 -70 106 -70 l54 0 0 -1224 0 -1224 -61 -4 c-49 -4 -66 -9
-80 -27 -28 -35 -25 -85 7 -110 l27 -21 2457 0 2457 0 27 21 c32 25 35 75 7
110 -14 18 -31 23 -80 27 l-61 4 0 1224 0 1224 54 0 c66 0 106 26 106 70 0 87
-11 90 -377 90 l-308 1 -723 691 c-548 523 -722 694 -716 707 39 94 46 129 42
206 -5 99 -37 173 -104 245 -68 73 -151 111 -250 116 -44 2 -96 -1 -117 -6z
m181 -166 c161 -67 184 -293 39 -391 -114 -77 -264 -40 -326 81 -59 116 -9
259 109 310 46 20 131 20 178 0z m-145 -585 c69 -12 146 0 224 35 l53 25 665
-635 665 -634 -1595 0 -1596 0 253 228 c139 126 457 413 706 638 l454 410 56
-28 c32 -16 83 -33 115 -39z m2207 -2594 l0 -1225 -2200 0 -2200 0 0 1225 0
1225 2200 0 2200 0 0 -1225z"/>
<path d="M1313 2450 c-34 -14 -56 -54 -48 -90 14 -64 -75 -60 1296 -60 1173 0
1248 1 1268 18 34 28 37 73 8 108 l-25 29 -1239 2 c-704 1 -1247 -2 -1260 -7z"/>
<path d="M2000 1851 c-58 -13 -87 -28 -129 -66 -137 -124 -111 -369 49 -459
50 -28 63 -31 140 -31 67 0 96 5 137 24 54 24 69 46 59 86 -9 34 -34 38 -99
15 -73 -26 -122 -25 -177 3 -57 29 -80 73 -80 153 0 138 111 201 263 149 70
-24 92 -15 92 36 0 31 -4 36 -55 61 -60 29 -144 41 -200 29z"/>
<path d="M3609 1847 c-93 -26 -166 -94 -189 -175 -18 -67 -12 -172 14 -227 64
-138 241 -195 389 -125 52 25 72 50 62 80 -12 38 -40 43 -105 19 -136 -50
-247 8 -258 134 -11 139 91 221 229 181 103 -29 107 -29 126 4 l17 30 88 -124
88 -123 0 -100 c0 -92 2 -101 22 -115 30 -21 44 -20 68 4 17 17 20 33 20 118
l0 97 90 125 c49 69 90 134 90 146 0 43 -58 69 -92 42 -8 -7 -43 -55 -78 -106
-35 -51 -67 -89 -71 -85 -5 5 -37 48 -71 97 -35 49 -70 94 -79 99 -28 17 -69
0 -75 -33 -6 -28 -6 -29 -27 -10 -46 43 -183 68 -258 47z"/>
<path d="M776 1834 c-9 -8 -16 -23 -16 -33 0 -33 190 -476 211 -493 47 -39 99
-15 132 61 70 158 169 409 169 428 1 53 -68 74 -96 31 -12 -18 -86 -198 -148
-358 -8 -22 -18 -3 -88 169 -43 106 -84 197 -91 202 -22 14 -56 10 -73 -7z"/>
<path d="M1458 1833 c-9 -10 -60 -121 -113 -247 -102 -241 -108 -266 -61 -287
36 -17 64 4 93 72 l26 59 104 0 104 0 29 -64 c32 -72 56 -87 95 -62 17 11 25
26 25 44 -1 31 -178 453 -203 482 -21 25 -78 26 -99 3z m102 -285 c0 -15 -9
-18 -55 -18 -30 0 -55 3 -55 8 0 4 12 38 27 75 l28 68 27 -58 c15 -32 27 -66
28 -75z"/>
<path d="M2485 1826 c-9 -14 -59 -125 -111 -248 -100 -235 -105 -259 -59 -280
36 -16 68 9 95 76 l22 56 105 0 104 0 25 -55 c30 -66 63 -92 93 -75 50 26 48
36 -59 288 -55 130 -108 243 -117 250 -29 21 -81 15 -98 -12z m84 -214 c13
-31 25 -63 28 -69 4 -10 -11 -13 -56 -13 -34 0 -61 2 -61 5 0 12 54 135 59
135 3 0 17 -26 30 -58z"/>
<path d="M2877 1832 c-15 -16 -17 -50 -17 -265 l0 -247 24 -15 c27 -18 69 -7
80 20 3 9 6 89 6 177 l0 161 125 -181 c107 -154 129 -181 156 -187 23 -5 38
-2 58 13 l26 19 3 249 c2 225 1 250 -15 262 -24 17 -57 15 -76 -6 -14 -15 -17
-47 -19 -181 l-3 -162 -109 158 c-60 87 -118 168 -129 181 -26 28 -86 30 -110
4z"/>
<path d="M1289 821 c-16 -16 -29 -36 -29 -45 0 -28 22 -64 47 -75 34 -16 2472
-16 2506 0 25 11 47 47 47 75 0 9 -13 29 -29 45 l-29 29 -1242 0 -1242 0 -29
-29z"/>
</g>
</svg>
